<?xml version="1.0" encoding="UTF-8" standalone="no"?>
<!DOCTYPE svg PUBLIC "-//W3C//DTD SVG 1.1//EN"
 "http://www.w3.org/Graphics/SVG/1.1/DTD/svg11.dtd">
<!-- Generated by graphviz version 2.47.0 (20210316.0004)
 -->
<!-- Title: dependencies Pages: 1 -->
<svg width="1734pt" height="211pt"
 viewBox="0.00 0.00 1734.00 211.00" xmlns="http://www.w3.org/2000/svg" xmlns:xlink="http://www.w3.org/1999/xlink">
<g id="graph0" class="graph" transform="scale(1 1) rotate(0) translate(4 207)">
<title>dependencies</title>
<polygon fill="white" stroke="transparent" points="-4,4 -4,-207 1730,-207 1730,4 -4,4"/>
<text text-anchor="start" x="842.01" y="-42.4" font-family="sans-serif" font-weight="bold" font-size="14.00">Legend</text>
<polygon fill="#ffffb3" stroke="transparent" points="629,-10 629,-30 649,-30 649,-10 629,-10"/>
<text text-anchor="start" x="652.63" y="-15.4" font-family="sans-serif" font-size="14.00"> &#160;Declarations</text>
<polygon fill="#8dd3c7" stroke="transparent" points="742,-10 742,-30 762,-30 762,-10 742,-10"/>
<text text-anchor="start" x="765.73" y="-15.4" font-family="sans-serif" font-size="14.00"> &#160;Module</text>
<polygon fill="#80b1d3" stroke="transparent" points="828,-10 828,-30 848,-30 848,-10 828,-10"/>
<text text-anchor="start" x="851.78" y="-15.4" font-family="sans-serif" font-size="14.00"> &#160;Bootstrap</text>
<polygon fill="#fdb462" stroke="transparent" points="925,-10 925,-30 945,-30 945,-10 925,-10"/>
<text text-anchor="start" x="948.67" y="-15.4" font-family="sans-serif" font-size="14.00"> &#160;Providers</text>
<polygon fill="#fb8072" stroke="transparent" points="1021,-10 1021,-30 1041,-30 1041,-10 1021,-10"/>
<text text-anchor="start" x="1044.73" y="-15.4" font-family="sans-serif" font-size="14.00"> &#160;Exports</text>
<g id="clust1" class="cluster">
<title>cluster_HomeModule</title>
<polygon fill="none" stroke="black" stroke-dasharray="1,5" points="8,-70 8,-195 1718,-195 1718,-70 8,-70"/>
</g>
<g id="clust2" class="cluster">
<title>cluster_HomeModule_declarations</title>
<polygon fill="none" stroke="black" points="254,-78 254,-130 1710,-130 1710,-78 254,-78"/>
</g>
<g id="clust12" class="cluster">
<title>cluster_HomeModule_imports</title>
<polygon fill="none" stroke="black" points="16,-78 16,-130 246,-130 246,-78 16,-78"/>
</g>
<!-- ComparisonComponent -->
<g id="node1" class="node">
<title>ComparisonComponent</title>
<polygon fill="#ffffb3" stroke="black" points="1701.77,-122 1552.23,-122 1552.23,-86 1701.77,-86 1701.77,-122"/>
<text text-anchor="middle" x="1627" y="-99.8" font-family="Times,serif" font-size="14.00">ComparisonComponent</text>
</g>
<!-- HomeModule -->
<g id="node10" class="node">
<title>HomeModule</title>
<polygon fill="#8dd3c7" stroke="black" points="830.76,-187 827.76,-191 806.76,-191 803.76,-187 737.24,-187 737.24,-151 830.76,-151 830.76,-187"/>
<text text-anchor="middle" x="784" y="-164.8" font-family="Times,serif" font-size="14.00">HomeModule</text>
</g>
<!-- ComparisonComponent&#45;&gt;HomeModule -->
<g id="edge1" class="edge">
<title>ComparisonComponent&#45;&gt;HomeModule</title>
<path fill="none" stroke="black" d="M1627,-122.09C1627,-145.13 1627,-182 1627,-182 1627,-182 840.83,-182 840.83,-182"/>
<polygon fill="black" stroke="black" points="840.83,-178.5 830.83,-182 840.83,-185.5 840.83,-178.5"/>
</g>
<!-- ComparisonEntryComponent -->
<g id="node2" class="node">
<title>ComparisonEntryComponent</title>
<polygon fill="#ffffb3" stroke="black" points="1534.37,-122 1353.63,-122 1353.63,-86 1534.37,-86 1534.37,-122"/>
<text text-anchor="middle" x="1444" y="-99.8" font-family="Times,serif" font-size="14.00">ComparisonEntryComponent</text>
</g>
<!-- ComparisonEntryComponent&#45;&gt;HomeModule -->
<g id="edge2" class="edge">
<title>ComparisonEntryComponent&#45;&gt;HomeModule</title>
<path fill="none" stroke="black" d="M1444,-122.28C1444,-143.32 1444,-175 1444,-175 1444,-175 840.94,-175 840.94,-175"/>
<polygon fill="black" stroke="black" points="840.94,-171.5 830.94,-175 840.94,-178.5 840.94,-171.5"/>
</g>
<!-- DocumentComponent -->
<g id="node3" class="node">
<title>DocumentComponent</title>
<polygon fill="#ffffb3" stroke="black" points="1335.65,-122 1196.35,-122 1196.35,-86 1335.65,-86 1335.65,-122"/>
<text text-anchor="middle" x="1266" y="-99.8" font-family="Times,serif" font-size="14.00">DocumentComponent</text>
</g>
<!-- DocumentComponent&#45;&gt;HomeModule -->
<g id="edge3" class="edge">
<title>DocumentComponent&#45;&gt;HomeModule</title>
<path fill="none" stroke="black" d="M1266,-122.11C1266,-141.34 1266,-169 1266,-169 1266,-169 841.09,-169 841.09,-169"/>
<polygon fill="black" stroke="black" points="841.09,-165.5 831.09,-169 841.09,-172.5 841.09,-165.5"/>
</g>
<!-- DocumentContentComponent -->
<g id="node4" class="node">
<title>DocumentContentComponent</title>
<polygon fill="#ffffb3" stroke="black" points="1177.98,-122 994.02,-122 994.02,-86 1177.98,-86 1177.98,-122"/>
<text text-anchor="middle" x="1086" y="-99.8" font-family="Times,serif" font-size="14.00">DocumentContentComponent</text>
</g>
<!-- DocumentContentComponent&#45;&gt;HomeModule -->
<g id="edge4" class="edge">
<title>DocumentContentComponent&#45;&gt;HomeModule</title>
<path fill="none" stroke="black" d="M1086,-122.02C1086,-139.37 1086,-163 1086,-163 1086,-163 840.86,-163 840.86,-163"/>
<polygon fill="black" stroke="black" points="840.86,-159.5 830.86,-163 840.86,-166.5 840.86,-159.5"/>
</g>
<!-- GraphComponent -->
<g id="node5" class="node">
<title>GraphComponent</title>
<polygon fill="#ffffb3" stroke="black" points="976.31,-122 859.69,-122 859.69,-86 976.31,-86 976.31,-122"/>
<text text-anchor="middle" x="918" y="-99.8" font-family="Times,serif" font-size="14.00">GraphComponent</text>
</g>
<!-- GraphComponent&#45;&gt;HomeModule -->
<g id="edge5" class="edge">
<title>GraphComponent&#45;&gt;HomeModule</title>
<path fill="none" stroke="black" d="M918,-122.24C918,-137.57 918,-157 918,-157 918,-157 840.87,-157 840.87,-157"/>
<polygon fill="black" stroke="black" points="840.87,-153.5 830.87,-157 840.87,-160.5 840.87,-153.5"/>
</g>
<!-- HomeComponent -->
<g id="node6" class="node">
<title>HomeComponent</title>
<polygon fill="#ffffb3" stroke="black" points="841.55,-122 726.45,-122 726.45,-86 841.55,-86 841.55,-122"/>
<text text-anchor="middle" x="784" y="-99.8" font-family="Times,serif" font-size="14.00">HomeComponent</text>
</g>
<!-- HomeComponent&#45;&gt;HomeModule -->
<g id="edge6" class="edge">
<title>HomeComponent&#45;&gt;HomeModule</title>
<path fill="none" stroke="black" d="M784,-122.11C784,-122.11 784,-140.99 784,-140.99"/>
<polygon fill="black" stroke="black" points="780.5,-140.99 784,-150.99 787.5,-140.99 780.5,-140.99"/>
</g>
<!-- SettingsComponent -->
<g id="node7" class="node">
<title>SettingsComponent</title>
<polygon fill="#ffffb3" stroke="black" points="708.45,-122 581.55,-122 581.55,-86 708.45,-86 708.45,-122"/>
<text text-anchor="middle" x="645" y="-99.8" font-family="Times,serif" font-size="14.00">SettingsComponent</text>
</g>
<!-- SettingsComponent&#45;&gt;HomeModule -->
<g id="edge7" class="edge">
<title>SettingsComponent&#45;&gt;HomeModule</title>
<path fill="none" stroke="black" d="M645,-122.24C645,-137.57 645,-157 645,-157 645,-157 726.94,-157 726.94,-157"/>
<polygon fill="black" stroke="black" points="726.94,-160.5 736.94,-157 726.94,-153.5 726.94,-160.5"/>
</g>
<!-- SidenavComponent -->
<g id="node8" class="node">
<title>SidenavComponent</title>
<polygon fill="#ffffb3" stroke="black" points="564.44,-122 437.56,-122 437.56,-86 564.44,-86 564.44,-122"/>
<text text-anchor="middle" x="501" y="-99.8" font-family="Times,serif" font-size="14.00">SidenavComponent</text>
</g>
<!-- SidenavComponent&#45;&gt;HomeModule -->
<g id="edge8" class="edge">
<title>SidenavComponent&#45;&gt;HomeModule</title>
<path fill="none" stroke="black" d="M501,-122.02C501,-139.37 501,-163 501,-163 501,-163 726.95,-163 726.95,-163"/>
<polygon fill="black" stroke="black" points="726.95,-166.5 736.95,-163 726.95,-159.5 726.95,-166.5"/>
</g>
<!-- UserInterfaceComponent -->
<g id="node9" class="node">
<title>UserInterfaceComponent</title>
<polygon fill="#ffffb3" stroke="black" points="419.99,-122 262.01,-122 262.01,-86 419.99,-86 419.99,-122"/>
<text text-anchor="middle" x="341" y="-99.8" font-family="Times,serif" font-size="14.00">UserInterfaceComponent</text>
</g>
<!-- UserInterfaceComponent&#45;&gt;HomeModule -->
<g id="edge9" class="edge">
<title>UserInterfaceComponent&#45;&gt;HomeModule</title>
<path fill="none" stroke="black" d="M341,-122.11C341,-141.34 341,-169 341,-169 341,-169 727.01,-169 727.01,-169"/>
<polygon fill="black" stroke="black" points="727.01,-172.5 737.01,-169 727.01,-165.5 727.01,-172.5"/>
</g>
<!-- HomeRoutes -->
<g id="node11" class="node">
<title>HomeRoutes</title>
<polygon fill="#8dd3c7" stroke="black" points="237.6,-122 234.6,-126 213.6,-126 210.6,-122 148.4,-122 148.4,-86 237.6,-86 237.6,-122"/>
<text text-anchor="middle" x="193" y="-99.8" font-family="Times,serif" font-size="14.00">HomeRoutes</text>
</g>
<!-- HomeRoutes&#45;&gt;HomeModule -->
<g id="edge10" class="edge">
<title>HomeRoutes&#45;&gt;HomeModule</title>
<path fill="none" stroke="black" d="M193,-122.28C193,-143.32 193,-175 193,-175 193,-175 727.13,-175 727.13,-175"/>
<polygon fill="black" stroke="black" points="727.13,-178.5 737.13,-175 727.13,-171.5 727.13,-178.5"/>
</g>
<!-- MaterialModule -->
<g id="node12" class="node">
<title>MaterialModule</title>
<polygon fill="#8dd3c7" stroke="black" points="130.47,-122 127.47,-126 106.47,-126 103.47,-122 23.53,-122 23.53,-86 130.47,-86 130.47,-122"/>
<text text-anchor="middle" x="77" y="-99.8" font-family="Times,serif" font-size="14.00">MaterialModule</text>
</g>
<!-- MaterialModule&#45;&gt;HomeModule -->
<g id="edge11" class="edge">
<title>MaterialModule&#45;&gt;HomeModule</title>
<path fill="none" stroke="black" d="M77,-122.09C77,-145.13 77,-182 77,-182 77,-182 727.06,-182 727.06,-182"/>
<polygon fill="black" stroke="black" points="727.06,-185.5 737.06,-182 727.06,-178.5 727.06,-185.5"/>
</g>
</g>
</svg>
