<?xml version="1.0" encoding="UTF-8" standalone="no"?>
<!DOCTYPE svg PUBLIC "-//W3C//DTD SVG 1.1//EN"
 "http://www.w3.org/Graphics/SVG/1.1/DTD/svg11.dtd">
<!-- Generated by graphviz version 2.47.0 (20210316.0004)
 -->
<!-- Title: dependencies Pages: 1 -->
<svg width="1558pt" height="211pt"
 viewBox="0.00 0.00 1558.00 211.00" xmlns="http://www.w3.org/2000/svg" xmlns:xlink="http://www.w3.org/1999/xlink">
<g id="graph0" class="graph" transform="scale(1 1) rotate(0) translate(4 207)">
<title>dependencies</title>
<polygon fill="white" stroke="transparent" points="-4,4 -4,-207 1554,-207 1554,4 -4,4"/>
<text text-anchor="start" x="754.01" y="-42.4" font-family="sans-serif" font-weight="bold" font-size="14.00">Legend</text>
<polygon fill="#ffffb3" stroke="transparent" points="541,-10 541,-30 561,-30 561,-10 541,-10"/>
<text text-anchor="start" x="564.63" y="-15.4" font-family="sans-serif" font-size="14.00"> &#160;Declarations</text>
<polygon fill="#8dd3c7" stroke="transparent" points="654,-10 654,-30 674,-30 674,-10 654,-10"/>
<text text-anchor="start" x="677.73" y="-15.4" font-family="sans-serif" font-size="14.00"> &#160;Module</text>
<polygon fill="#80b1d3" stroke="transparent" points="740,-10 740,-30 760,-30 760,-10 740,-10"/>
<text text-anchor="start" x="763.78" y="-15.4" font-family="sans-serif" font-size="14.00"> &#160;Bootstrap</text>
<polygon fill="#fdb462" stroke="transparent" points="837,-10 837,-30 857,-30 857,-10 837,-10"/>
<text text-anchor="start" x="860.67" y="-15.4" font-family="sans-serif" font-size="14.00"> &#160;Providers</text>
<polygon fill="#fb8072" stroke="transparent" points="933,-10 933,-30 953,-30 953,-10 933,-10"/>
<text text-anchor="start" x="956.73" y="-15.4" font-family="sans-serif" font-size="14.00"> &#160;Exports</text>
<g id="clust1" class="cluster">
<title>cluster_HomeModule</title>
<polygon fill="none" stroke="black" stroke-dasharray="1,5" points="8,-70 8,-195 1542,-195 1542,-70 8,-70"/>
</g>
<g id="clust2" class="cluster">
<title>cluster_HomeModule_declarations</title>
<polygon fill="none" stroke="black" points="254,-78 254,-130 1534,-130 1534,-78 254,-78"/>
</g>
<g id="clust11" class="cluster">
<title>cluster_HomeModule_imports</title>
<polygon fill="none" stroke="black" points="16,-78 16,-130 246,-130 246,-78 16,-78"/>
</g>
<!-- ComparisonComponent -->
<g id="node1" class="node">
<title>ComparisonComponent</title>
<polygon fill="#ffffb3" stroke="black" points="1525.77,-122 1376.23,-122 1376.23,-86 1525.77,-86 1525.77,-122"/>
<text text-anchor="middle" x="1451" y="-99.8" font-family="Times,serif" font-size="14.00">ComparisonComponent</text>
</g>
<!-- HomeModule -->
<g id="node9" class="node">
<title>HomeModule</title>
<polygon fill="#8dd3c7" stroke="black" points="721.76,-187 718.76,-191 697.76,-191 694.76,-187 628.24,-187 628.24,-151 721.76,-151 721.76,-187"/>
<text text-anchor="middle" x="675" y="-164.8" font-family="Times,serif" font-size="14.00">HomeModule</text>
</g>
<!-- ComparisonComponent&#45;&gt;HomeModule -->
<g id="edge1" class="edge">
<title>ComparisonComponent&#45;&gt;HomeModule</title>
<path fill="none" stroke="black" d="M1451,-122.01C1451,-144.49 1451,-180 1451,-180 1451,-180 731.79,-180 731.79,-180"/>
<polygon fill="black" stroke="black" points="731.79,-176.5 721.79,-180 731.79,-183.5 731.79,-176.5"/>
</g>
<!-- ComparisonEntryComponent -->
<g id="node2" class="node">
<title>ComparisonEntryComponent</title>
<polygon fill="#ffffb3" stroke="black" points="1358.37,-122 1177.63,-122 1177.63,-86 1358.37,-86 1358.37,-122"/>
<text text-anchor="middle" x="1268" y="-99.8" font-family="Times,serif" font-size="14.00">ComparisonEntryComponent</text>
</g>
<!-- ComparisonEntryComponent&#45;&gt;HomeModule -->
<g id="edge2" class="edge">
<title>ComparisonEntryComponent&#45;&gt;HomeModule</title>
<path fill="none" stroke="black" d="M1268,-122.13C1268,-142.57 1268,-173 1268,-173 1268,-173 732.03,-173 732.03,-173"/>
<polygon fill="black" stroke="black" points="732.03,-169.5 722.03,-173 732.03,-176.5 732.03,-169.5"/>
</g>
<!-- DocumentComponent -->
<g id="node3" class="node">
<title>DocumentComponent</title>
<polygon fill="#ffffb3" stroke="black" points="1159.65,-122 1020.35,-122 1020.35,-86 1159.65,-86 1159.65,-122"/>
<text text-anchor="middle" x="1090" y="-99.8" font-family="Times,serif" font-size="14.00">DocumentComponent</text>
</g>
<!-- DocumentComponent&#45;&gt;HomeModule -->
<g id="edge3" class="edge">
<title>DocumentComponent&#45;&gt;HomeModule</title>
<path fill="none" stroke="black" d="M1090,-122.27C1090,-140.56 1090,-166 1090,-166 1090,-166 731.8,-166 731.8,-166"/>
<polygon fill="black" stroke="black" points="731.8,-162.5 721.8,-166 731.8,-169.5 731.8,-162.5"/>
</g>
<!-- DocumentContentComponent -->
<g id="node4" class="node">
<title>DocumentContentComponent</title>
<polygon fill="#ffffb3" stroke="black" points="1001.98,-122 818.02,-122 818.02,-86 1001.98,-86 1001.98,-122"/>
<text text-anchor="middle" x="910" y="-99.8" font-family="Times,serif" font-size="14.00">DocumentContentComponent</text>
</g>
<!-- DocumentContentComponent&#45;&gt;HomeModule -->
<g id="edge4" class="edge">
<title>DocumentContentComponent&#45;&gt;HomeModule</title>
<path fill="none" stroke="black" d="M910,-122.01C910,-138.05 910,-159 910,-159 910,-159 731.99,-159 731.99,-159"/>
<polygon fill="black" stroke="black" points="731.99,-155.5 721.99,-159 731.99,-162.5 731.99,-155.5"/>
</g>
<!-- GraphComponent -->
<g id="node5" class="node">
<title>GraphComponent</title>
<polygon fill="#ffffb3" stroke="black" points="800.31,-122 683.69,-122 683.69,-86 800.31,-86 800.31,-122"/>
<text text-anchor="middle" x="742" y="-99.8" font-family="Times,serif" font-size="14.00">GraphComponent</text>
</g>
<!-- GraphComponent&#45;&gt;HomeModule -->
<g id="edge5" class="edge">
<title>GraphComponent&#45;&gt;HomeModule</title>
<path fill="none" stroke="black" d="M702.86,-122.11C702.86,-122.11 702.86,-140.99 702.86,-140.99"/>
<polygon fill="black" stroke="black" points="699.36,-140.99 702.86,-150.99 706.36,-140.99 699.36,-140.99"/>
</g>
<!-- HomeComponent -->
<g id="node6" class="node">
<title>HomeComponent</title>
<polygon fill="#ffffb3" stroke="black" points="665.55,-122 550.45,-122 550.45,-86 665.55,-86 665.55,-122"/>
<text text-anchor="middle" x="608" y="-99.8" font-family="Times,serif" font-size="14.00">HomeComponent</text>
</g>
<!-- HomeComponent&#45;&gt;HomeModule -->
<g id="edge6" class="edge">
<title>HomeComponent&#45;&gt;HomeModule</title>
<path fill="none" stroke="black" d="M646.95,-122.11C646.95,-122.11 646.95,-140.99 646.95,-140.99"/>
<polygon fill="black" stroke="black" points="643.45,-140.99 646.95,-150.99 650.45,-140.99 643.45,-140.99"/>
</g>
<!-- SettingsComponent -->
<g id="node7" class="node">
<title>SettingsComponent</title>
<polygon fill="#ffffb3" stroke="black" points="532.45,-122 405.55,-122 405.55,-86 532.45,-86 532.45,-122"/>
<text text-anchor="middle" x="469" y="-99.8" font-family="Times,serif" font-size="14.00">SettingsComponent</text>
</g>
<!-- SettingsComponent&#45;&gt;HomeModule -->
<g id="edge7" class="edge">
<title>SettingsComponent&#45;&gt;HomeModule</title>
<path fill="none" stroke="black" d="M469,-122.01C469,-138.05 469,-159 469,-159 469,-159 618,-159 618,-159"/>
<polygon fill="black" stroke="black" points="618,-162.5 628,-159 618,-155.5 618,-162.5"/>
</g>
<!-- SidenavComponent -->
<g id="node8" class="node">
<title>SidenavComponent</title>
<polygon fill="#ffffb3" stroke="black" points="388.44,-122 261.56,-122 261.56,-86 388.44,-86 388.44,-122"/>
<text text-anchor="middle" x="325" y="-99.8" font-family="Times,serif" font-size="14.00">SidenavComponent</text>
</g>
<!-- SidenavComponent&#45;&gt;HomeModule -->
<g id="edge8" class="edge">
<title>SidenavComponent&#45;&gt;HomeModule</title>
<path fill="none" stroke="black" d="M325,-122.27C325,-140.56 325,-166 325,-166 325,-166 618.16,-166 618.16,-166"/>
<polygon fill="black" stroke="black" points="618.16,-169.5 628.16,-166 618.16,-162.5 618.16,-169.5"/>
</g>
<!-- HomeRoutes -->
<g id="node10" class="node">
<title>HomeRoutes</title>
<polygon fill="#8dd3c7" stroke="black" points="237.6,-122 234.6,-126 213.6,-126 210.6,-122 148.4,-122 148.4,-86 237.6,-86 237.6,-122"/>
<text text-anchor="middle" x="193" y="-99.8" font-family="Times,serif" font-size="14.00">HomeRoutes</text>
</g>
<!-- HomeRoutes&#45;&gt;HomeModule -->
<g id="edge9" class="edge">
<title>HomeRoutes&#45;&gt;HomeModule</title>
<path fill="none" stroke="black" d="M193,-122.13C193,-142.57 193,-173 193,-173 193,-173 617.91,-173 617.91,-173"/>
<polygon fill="black" stroke="black" points="617.91,-176.5 627.91,-173 617.91,-169.5 617.91,-176.5"/>
</g>
<!-- MaterialModule -->
<g id="node11" class="node">
<title>MaterialModule</title>
<polygon fill="#8dd3c7" stroke="black" points="130.47,-122 127.47,-126 106.47,-126 103.47,-122 23.53,-122 23.53,-86 130.47,-86 130.47,-122"/>
<text text-anchor="middle" x="77" y="-99.8" font-family="Times,serif" font-size="14.00">MaterialModule</text>
</g>
<!-- MaterialModule&#45;&gt;HomeModule -->
<g id="edge10" class="edge">
<title>MaterialModule&#45;&gt;HomeModule</title>
<path fill="none" stroke="black" d="M77,-122.01C77,-144.49 77,-180 77,-180 77,-180 618.08,-180 618.08,-180"/>
<polygon fill="black" stroke="black" points="618.08,-183.5 628.08,-180 618.08,-176.5 618.08,-183.5"/>
</g>
</g>
</svg>
