<?xml version="1.0" encoding="UTF-8" standalone="no"?>
<!DOCTYPE svg PUBLIC "-//W3C//DTD SVG 1.1//EN"
 "http://www.w3.org/Graphics/SVG/1.1/DTD/svg11.dtd">
<!-- Generated by graphviz version 2.47.0 (20210316.0004)
 -->
<!-- Title: dependencies Pages: 1 -->
<svg width="504pt" height="284pt"
 viewBox="0.00 0.00 504.00 284.00" xmlns="http://www.w3.org/2000/svg" xmlns:xlink="http://www.w3.org/1999/xlink">
<g id="graph0" class="graph" transform="scale(1 1) rotate(0) translate(4 280)">
<title>dependencies</title>
<polygon fill="white" stroke="transparent" points="-4,4 -4,-280 500,-280 500,4 -4,4"/>
<text text-anchor="start" x="227.01" y="-42.4" font-family="sans-serif" font-weight="bold" font-size="14.00">Legend</text>
<polygon fill="#ffffb3" stroke="transparent" points="14,-10 14,-30 34,-30 34,-10 14,-10"/>
<text text-anchor="start" x="37.63" y="-15.4" font-family="sans-serif" font-size="14.00"> &#160;Declarations</text>
<polygon fill="#8dd3c7" stroke="transparent" points="127,-10 127,-30 147,-30 147,-10 127,-10"/>
<text text-anchor="start" x="150.73" y="-15.4" font-family="sans-serif" font-size="14.00"> &#160;Module</text>
<polygon fill="#80b1d3" stroke="transparent" points="213,-10 213,-30 233,-30 233,-10 213,-10"/>
<text text-anchor="start" x="236.78" y="-15.4" font-family="sans-serif" font-size="14.00"> &#160;Bootstrap</text>
<polygon fill="#fdb462" stroke="transparent" points="310,-10 310,-30 330,-30 330,-10 310,-10"/>
<text text-anchor="start" x="333.67" y="-15.4" font-family="sans-serif" font-size="14.00"> &#160;Providers</text>
<polygon fill="#fb8072" stroke="transparent" points="406,-10 406,-30 426,-30 426,-10 406,-10"/>
<text text-anchor="start" x="429.73" y="-15.4" font-family="sans-serif" font-size="14.00"> &#160;Exports</text>
<g id="clust1" class="cluster">
<title>cluster_AppModule</title>
<polygon fill="none" stroke="black" stroke-dasharray="1,5" points="65.5,-70 65.5,-268 430.5,-268 430.5,-70 65.5,-70"/>
</g>
<g id="clust2" class="cluster">
<title>cluster_AppModule_declarations</title>
<polygon fill="none" stroke="black" points="300.5,-78 300.5,-130 422.5,-130 422.5,-78 300.5,-78"/>
</g>
<g id="clust4" class="cluster">
<title>cluster_AppModule_imports</title>
<polygon fill="none" stroke="black" points="73.5,-78 73.5,-130 292.5,-130 292.5,-78 73.5,-78"/>
</g>
<g id="clust6" class="cluster">
<title>cluster_AppModule_bootstrap</title>
<polygon fill="none" stroke="black" points="183.5,-208 183.5,-260 307.5,-260 307.5,-208 183.5,-208"/>
</g>
<!-- AppComponent -->
<g id="node1" class="node">
<title>AppComponent</title>
<polygon fill="#ffffb3" stroke="black" points="414.44,-122 308.56,-122 308.56,-86 414.44,-86 414.44,-122"/>
<text text-anchor="middle" x="361.5" y="-99.8" font-family="Times,serif" font-size="14.00">AppComponent</text>
</g>
<!-- AppModule -->
<g id="node2" class="node">
<title>AppModule</title>
<polygon fill="#8dd3c7" stroke="black" points="287.16,-187 284.16,-191 263.16,-191 260.16,-187 203.84,-187 203.84,-151 287.16,-151 287.16,-187"/>
<text text-anchor="middle" x="245.5" y="-164.8" font-family="Times,serif" font-size="14.00">AppModule</text>
</g>
<!-- AppComponent&#45;&gt;AppModule -->
<g id="edge1" class="edge">
<title>AppComponent&#45;&gt;AppModule</title>
<path fill="none" stroke="black" d="M361.5,-122.11C361.5,-141.34 361.5,-169 361.5,-169 361.5,-169 297.38,-169 297.38,-169"/>
<polygon fill="black" stroke="black" points="297.38,-165.5 287.38,-169 297.38,-172.5 297.38,-165.5"/>
</g>
<!-- AppComponent  -->
<g id="node5" class="node">
<title>AppComponent </title>
<polygon fill="#80b1d3" stroke="black" points="299.94,-252 191.06,-252 191.06,-216 299.94,-216 299.94,-252"/>
<text text-anchor="middle" x="245.5" y="-229.8" font-family="Times,serif" font-size="14.00">AppComponent </text>
</g>
<!-- AppModule&#45;&gt;AppComponent  -->
<g id="edge4" class="edge">
<title>AppModule&#45;&gt;AppComponent </title>
<path fill="none" stroke="black" stroke-dasharray="1,5" d="M245.5,-187.11C245.5,-187.11 245.5,-205.99 245.5,-205.99"/>
<polygon fill="black" stroke="black" points="242,-205.99 245.5,-215.99 249,-205.99 242,-205.99"/>
</g>
<!-- AppRouter -->
<g id="node3" class="node">
<title>AppRouter</title>
<polygon fill="#8dd3c7" stroke="black" points="284.71,-122 281.71,-126 260.71,-126 257.71,-122 206.29,-122 206.29,-86 284.71,-86 284.71,-122"/>
<text text-anchor="middle" x="245.5" y="-99.8" font-family="Times,serif" font-size="14.00">AppRouter</text>
</g>
<!-- AppRouter&#45;&gt;AppModule -->
<g id="edge2" class="edge">
<title>AppRouter&#45;&gt;AppModule</title>
<path fill="none" stroke="black" d="M245.5,-122.11C245.5,-122.11 245.5,-140.99 245.5,-140.99"/>
<polygon fill="black" stroke="black" points="242,-140.99 245.5,-150.99 249,-140.99 242,-140.99"/>
</g>
<!-- MaterialModule -->
<g id="node4" class="node">
<title>MaterialModule</title>
<polygon fill="#8dd3c7" stroke="black" points="187.97,-122 184.97,-126 163.97,-126 160.97,-122 81.03,-122 81.03,-86 187.97,-86 187.97,-122"/>
<text text-anchor="middle" x="134.5" y="-99.8" font-family="Times,serif" font-size="14.00">MaterialModule</text>
</g>
<!-- MaterialModule&#45;&gt;AppModule -->
<g id="edge3" class="edge">
<title>MaterialModule&#45;&gt;AppModule</title>
<path fill="none" stroke="black" d="M134.5,-122.11C134.5,-141.34 134.5,-169 134.5,-169 134.5,-169 193.54,-169 193.54,-169"/>
<polygon fill="black" stroke="black" points="193.54,-172.5 203.54,-169 193.54,-165.5 193.54,-172.5"/>
</g>
</g>
</svg>
