<?xml version="1.0" encoding="UTF-8" standalone="no"?>
<!DOCTYPE svg PUBLIC "-//W3C//DTD SVG 1.1//EN"
 "http://www.w3.org/Graphics/SVG/1.1/DTD/svg11.dtd">
<!-- Generated by graphviz version 2.47.0 (20210316.0004)
 -->
<!-- Title: dependencies Pages: 1 -->
<svg width="2871pt" height="284pt"
 viewBox="0.00 0.00 2871.00 284.00" xmlns="http://www.w3.org/2000/svg" xmlns:xlink="http://www.w3.org/1999/xlink">
<g id="graph0" class="graph" transform="scale(1 1) rotate(0) translate(4 280)">
<title>dependencies</title>
<polygon fill="white" stroke="transparent" points="-4,4 -4,-280 2867,-280 2867,4 -4,4"/>
<text text-anchor="start" x="1410.51" y="-42.4" font-family="sans-serif" font-weight="bold" font-size="14.00">Legend</text>
<polygon fill="#ffffb3" stroke="transparent" points="1197.5,-10 1197.5,-30 1217.5,-30 1217.5,-10 1197.5,-10"/>
<text text-anchor="start" x="1221.13" y="-15.4" font-family="sans-serif" font-size="14.00"> &#160;Declarations</text>
<polygon fill="#8dd3c7" stroke="transparent" points="1310.5,-10 1310.5,-30 1330.5,-30 1330.5,-10 1310.5,-10"/>
<text text-anchor="start" x="1334.23" y="-15.4" font-family="sans-serif" font-size="14.00"> &#160;Module</text>
<polygon fill="#80b1d3" stroke="transparent" points="1396.5,-10 1396.5,-30 1416.5,-30 1416.5,-10 1396.5,-10"/>
<text text-anchor="start" x="1420.28" y="-15.4" font-family="sans-serif" font-size="14.00"> &#160;Bootstrap</text>
<polygon fill="#fdb462" stroke="transparent" points="1493.5,-10 1493.5,-30 1513.5,-30 1513.5,-10 1493.5,-10"/>
<text text-anchor="start" x="1517.17" y="-15.4" font-family="sans-serif" font-size="14.00"> &#160;Providers</text>
<polygon fill="#fb8072" stroke="transparent" points="1589.5,-10 1589.5,-30 1609.5,-30 1609.5,-10 1589.5,-10"/>
<text text-anchor="start" x="1613.23" y="-15.4" font-family="sans-serif" font-size="14.00"> &#160;Exports</text>
<g id="clust1" class="cluster">
<title>cluster_AppModule</title>
<polygon fill="none" stroke="black" stroke-dasharray="1,5" points="8,-70 8,-268 373,-268 373,-70 8,-70"/>
</g>
<g id="clust2" class="cluster">
<title>cluster_AppModule_declarations</title>
<polygon fill="none" stroke="black" points="16,-78 16,-130 138,-130 138,-78 16,-78"/>
</g>
<g id="clust4" class="cluster">
<title>cluster_AppModule_imports</title>
<polygon fill="none" stroke="black" points="146,-78 146,-130 365,-130 365,-78 146,-78"/>
</g>
<g id="clust6" class="cluster">
<title>cluster_AppModule_bootstrap</title>
<polygon fill="none" stroke="black" points="131,-208 131,-260 255,-260 255,-208 131,-208"/>
</g>
<g id="clust14" class="cluster">
<title>cluster_HomeModule</title>
<polygon fill="none" stroke="black" stroke-dasharray="1,5" points="381,-70 381,-195 1967,-195 1967,-70 381,-70"/>
</g>
<g id="clust15" class="cluster">
<title>cluster_HomeModule_declarations</title>
<polygon fill="none" stroke="black" points="503,-78 503,-130 1959,-130 1959,-78 503,-78"/>
</g>
<g id="clust25" class="cluster">
<title>cluster_HomeModule_imports</title>
<polygon fill="none" stroke="black" points="389,-78 389,-130 495,-130 495,-78 389,-78"/>
</g>
<g id="clust35" class="cluster">
<title>cluster_InitModule</title>
<polygon fill="none" stroke="black" stroke-dasharray="1,5" points="1975,-70 1975,-195 2205,-195 2205,-70 1975,-70"/>
</g>
<g id="clust36" class="cluster">
<title>cluster_InitModule_declarations</title>
<polygon fill="none" stroke="black" points="2081,-78 2081,-130 2197,-130 2197,-78 2081,-78"/>
</g>
<g id="clust38" class="cluster">
<title>cluster_InitModule_imports</title>
<polygon fill="none" stroke="black" points="1983,-78 1983,-130 2073,-130 2073,-78 1983,-78"/>
</g>
<g id="clust54" class="cluster">
<title>cluster_PipesModule</title>
<polygon fill="none" stroke="black" stroke-dasharray="1,5" points="2213,-70 2213,-268 2855,-268 2855,-70 2213,-70"/>
</g>
<g id="clust55" class="cluster">
<title>cluster_PipesModule_declarations</title>
<polygon fill="none" stroke="black" points="2239,-78 2239,-130 2847,-130 2847,-78 2239,-78"/>
</g>
<g id="clust62" class="cluster">
<title>cluster_PipesModule_exports</title>
<polygon fill="none" stroke="black" points="2221,-208 2221,-260 2847,-260 2847,-208 2221,-208"/>
</g>
<!-- AppComponent -->
<g id="node1" class="node">
<title>AppComponent</title>
<polygon fill="#ffffb3" stroke="black" points="129.94,-122 24.06,-122 24.06,-86 129.94,-86 129.94,-122"/>
<text text-anchor="middle" x="77" y="-99.8" font-family="Times,serif" font-size="14.00">AppComponent</text>
</g>
<!-- AppModule -->
<g id="node2" class="node">
<title>AppModule</title>
<polygon fill="#8dd3c7" stroke="black" points="234.66,-187 231.66,-191 210.66,-191 207.66,-187 151.34,-187 151.34,-151 234.66,-151 234.66,-187"/>
<text text-anchor="middle" x="193" y="-164.8" font-family="Times,serif" font-size="14.00">AppModule</text>
</g>
<!-- AppComponent&#45;&gt;AppModule -->
<g id="edge1" class="edge">
<title>AppComponent&#45;&gt;AppModule</title>
<path fill="none" stroke="black" d="M77,-122.11C77,-141.34 77,-169 77,-169 77,-169 141.12,-169 141.12,-169"/>
<polygon fill="black" stroke="black" points="141.12,-172.5 151.12,-169 141.12,-165.5 141.12,-172.5"/>
</g>
<!-- AppComponent  -->
<g id="node5" class="node">
<title>AppComponent </title>
<polygon fill="#80b1d3" stroke="black" points="247.44,-252 138.56,-252 138.56,-216 247.44,-216 247.44,-252"/>
<text text-anchor="middle" x="193" y="-229.8" font-family="Times,serif" font-size="14.00">AppComponent </text>
</g>
<!-- AppModule&#45;&gt;AppComponent  -->
<g id="edge4" class="edge">
<title>AppModule&#45;&gt;AppComponent </title>
<path fill="none" stroke="black" stroke-dasharray="1,5" d="M193,-187.11C193,-187.11 193,-205.99 193,-205.99"/>
<polygon fill="black" stroke="black" points="189.5,-205.99 193,-215.99 196.5,-205.99 189.5,-205.99"/>
</g>
<!-- AppRouter -->
<g id="node3" class="node">
<title>AppRouter</title>
<polygon fill="#8dd3c7" stroke="black" points="232.21,-122 229.21,-126 208.21,-126 205.21,-122 153.79,-122 153.79,-86 232.21,-86 232.21,-122"/>
<text text-anchor="middle" x="193" y="-99.8" font-family="Times,serif" font-size="14.00">AppRouter</text>
</g>
<!-- AppRouter&#45;&gt;AppModule -->
<g id="edge2" class="edge">
<title>AppRouter&#45;&gt;AppModule</title>
<path fill="none" stroke="black" d="M193,-122.11C193,-122.11 193,-140.99 193,-140.99"/>
<polygon fill="black" stroke="black" points="189.5,-140.99 193,-150.99 196.5,-140.99 189.5,-140.99"/>
</g>
<!-- MaterialModule -->
<g id="node4" class="node">
<title>MaterialModule</title>
<polygon fill="#8dd3c7" stroke="black" points="357.47,-122 354.47,-126 333.47,-126 330.47,-122 250.53,-122 250.53,-86 357.47,-86 357.47,-122"/>
<text text-anchor="middle" x="304" y="-99.8" font-family="Times,serif" font-size="14.00">MaterialModule</text>
</g>
<!-- MaterialModule&#45;&gt;AppModule -->
<g id="edge3" class="edge">
<title>MaterialModule&#45;&gt;AppModule</title>
<path fill="none" stroke="black" d="M304,-122.09C304,-145.13 304,-182 304,-182 304,-182 244.96,-182 244.96,-182"/>
<polygon fill="black" stroke="black" points="244.96,-178.5 234.96,-182 244.96,-185.5 244.96,-178.5"/>
</g>
<!-- HomeModule -->
<g id="node15" class="node">
<title>HomeModule</title>
<polygon fill="#8dd3c7" stroke="black" points="1141.76,-187 1138.76,-191 1117.76,-191 1114.76,-187 1048.24,-187 1048.24,-151 1141.76,-151 1141.76,-187"/>
<text text-anchor="middle" x="1095" y="-164.8" font-family="Times,serif" font-size="14.00">HomeModule</text>
</g>
<!-- MaterialModule&#45;&gt;HomeModule -->
<g id="edge15" class="edge">
<title>MaterialModule&#45;&gt;HomeModule</title>
<path fill="none" stroke="black" d="M330.74,-122.04C330.74,-143.66 330.74,-177 330.74,-177 330.74,-177 1038.06,-177 1038.06,-177"/>
<polygon fill="black" stroke="black" points="1038.06,-180.5 1048.06,-177 1038.06,-173.5 1038.06,-180.5"/>
</g>
<!-- InitModule -->
<g id="node18" class="node">
<title>InitModule</title>
<polygon fill="#8dd3c7" stroke="black" points="2067.49,-187 2064.49,-191 2043.49,-191 2040.49,-187 1988.51,-187 1988.51,-151 2067.49,-151 2067.49,-187"/>
<text text-anchor="middle" x="2028" y="-164.8" font-family="Times,serif" font-size="14.00">InitModule</text>
</g>
<!-- MaterialModule&#45;&gt;InitModule -->
<g id="edge18" class="edge">
<title>MaterialModule&#45;&gt;InitModule</title>
<path fill="none" stroke="black" d="M277.26,-122.04C277.26,-129.75 277.26,-137 277.26,-137 277.26,-137 2015.61,-137 2015.61,-137 2015.61,-137 2015.61,-140.76 2015.61,-140.76"/>
<polygon fill="black" stroke="black" points="2012.11,-140.76 2015.61,-150.76 2019.11,-140.76 2012.11,-140.76"/>
</g>
<!-- ComparisonComponent -->
<g id="node6" class="node">
<title>ComparisonComponent</title>
<polygon fill="#ffffb3" stroke="black" points="1352.77,-122 1203.23,-122 1203.23,-86 1352.77,-86 1352.77,-122"/>
<text text-anchor="middle" x="1278" y="-99.8" font-family="Times,serif" font-size="14.00">ComparisonComponent</text>
</g>
<!-- ComparisonComponent&#45;&gt;HomeModule -->
<g id="edge5" class="edge">
<title>ComparisonComponent&#45;&gt;HomeModule</title>
<path fill="none" stroke="black" d="M1278,-122.24C1278,-137.57 1278,-157 1278,-157 1278,-157 1152.13,-157 1152.13,-157"/>
<polygon fill="black" stroke="black" points="1152.13,-153.5 1142.13,-157 1152.13,-160.5 1152.13,-153.5"/>
</g>
<!-- ComparisonEntryComponent -->
<g id="node7" class="node">
<title>ComparisonEntryComponent</title>
<polygon fill="#ffffb3" stroke="black" points="1185.37,-122 1004.63,-122 1004.63,-86 1185.37,-86 1185.37,-122"/>
<text text-anchor="middle" x="1095" y="-99.8" font-family="Times,serif" font-size="14.00">ComparisonEntryComponent</text>
</g>
<!-- ComparisonEntryComponent&#45;&gt;HomeModule -->
<g id="edge6" class="edge">
<title>ComparisonEntryComponent&#45;&gt;HomeModule</title>
<path fill="none" stroke="black" d="M1095,-122.11C1095,-122.11 1095,-140.99 1095,-140.99"/>
<polygon fill="black" stroke="black" points="1091.5,-140.99 1095,-150.99 1098.5,-140.99 1091.5,-140.99"/>
</g>
<!-- DocumentComponent -->
<g id="node8" class="node">
<title>DocumentComponent</title>
<polygon fill="#ffffb3" stroke="black" points="986.65,-122 847.35,-122 847.35,-86 986.65,-86 986.65,-122"/>
<text text-anchor="middle" x="917" y="-99.8" font-family="Times,serif" font-size="14.00">DocumentComponent</text>
</g>
<!-- DocumentComponent&#45;&gt;HomeModule -->
<g id="edge7" class="edge">
<title>DocumentComponent&#45;&gt;HomeModule</title>
<path fill="none" stroke="black" d="M917,-122.24C917,-137.57 917,-157 917,-157 917,-157 1038.23,-157 1038.23,-157"/>
<polygon fill="black" stroke="black" points="1038.23,-160.5 1048.23,-157 1038.23,-153.5 1038.23,-160.5"/>
</g>
<!-- DocumentContentComponent -->
<g id="node9" class="node">
<title>DocumentContentComponent</title>
<polygon fill="#ffffb3" stroke="black" points="828.98,-122 645.02,-122 645.02,-86 828.98,-86 828.98,-122"/>
<text text-anchor="middle" x="737" y="-99.8" font-family="Times,serif" font-size="14.00">DocumentContentComponent</text>
</g>
<!-- DocumentContentComponent&#45;&gt;HomeModule -->
<g id="edge8" class="edge">
<title>DocumentContentComponent&#45;&gt;HomeModule</title>
<path fill="none" stroke="black" d="M737,-122.03C737,-139.06 737,-162 737,-162 737,-162 1038.2,-162 1038.2,-162"/>
<polygon fill="black" stroke="black" points="1038.2,-165.5 1048.2,-162 1038.2,-158.5 1038.2,-165.5"/>
</g>
<!-- GraphComponent -->
<g id="node10" class="node">
<title>GraphComponent</title>
<polygon fill="#ffffb3" stroke="black" points="627.31,-122 510.69,-122 510.69,-86 627.31,-86 627.31,-122"/>
<text text-anchor="middle" x="569" y="-99.8" font-family="Times,serif" font-size="14.00">GraphComponent</text>
</g>
<!-- GraphComponent&#45;&gt;HomeModule -->
<g id="edge9" class="edge">
<title>GraphComponent&#45;&gt;HomeModule</title>
<path fill="none" stroke="black" d="M569,-122.22C569,-140.83 569,-167 569,-167 569,-167 1037.86,-167 1037.86,-167"/>
<polygon fill="black" stroke="black" points="1037.86,-170.5 1047.86,-167 1037.86,-163.5 1037.86,-170.5"/>
</g>
<!-- HomeComponent -->
<g id="node11" class="node">
<title>HomeComponent</title>
<polygon fill="#ffffb3" stroke="black" points="1950.55,-122 1835.45,-122 1835.45,-86 1950.55,-86 1950.55,-122"/>
<text text-anchor="middle" x="1893" y="-99.8" font-family="Times,serif" font-size="14.00">HomeComponent</text>
</g>
<!-- HomeComponent&#45;&gt;HomeModule -->
<g id="edge10" class="edge">
<title>HomeComponent&#45;&gt;HomeModule</title>
<path fill="none" stroke="black" d="M1893,-122.25C1893,-145.02 1893,-181 1893,-181 1893,-181 1151.94,-181 1151.94,-181"/>
<polygon fill="black" stroke="black" points="1151.94,-177.5 1141.94,-181 1151.94,-184.5 1151.94,-177.5"/>
</g>
<!-- SettingsComponent -->
<g id="node12" class="node">
<title>SettingsComponent</title>
<polygon fill="#ffffb3" stroke="black" points="1817.45,-122 1690.55,-122 1690.55,-86 1817.45,-86 1817.45,-122"/>
<text text-anchor="middle" x="1754" y="-99.8" font-family="Times,serif" font-size="14.00">SettingsComponent</text>
</g>
<!-- SettingsComponent&#45;&gt;HomeModule -->
<g id="edge11" class="edge">
<title>SettingsComponent&#45;&gt;HomeModule</title>
<path fill="none" stroke="black" d="M1754,-122.28C1754,-143.32 1754,-175 1754,-175 1754,-175 1151.87,-175 1151.87,-175"/>
<polygon fill="black" stroke="black" points="1151.87,-171.5 1141.87,-175 1151.87,-178.5 1151.87,-171.5"/>
</g>
<!-- SidenavComponent -->
<g id="node13" class="node">
<title>SidenavComponent</title>
<polygon fill="#ffffb3" stroke="black" points="1673.44,-122 1546.56,-122 1546.56,-86 1673.44,-86 1673.44,-122"/>
<text text-anchor="middle" x="1610" y="-99.8" font-family="Times,serif" font-size="14.00">SidenavComponent</text>
</g>
<!-- SidenavComponent&#45;&gt;HomeModule -->
<g id="edge12" class="edge">
<title>SidenavComponent&#45;&gt;HomeModule</title>
<path fill="none" stroke="black" d="M1610,-122.11C1610,-141.34 1610,-169 1610,-169 1610,-169 1152.07,-169 1152.07,-169"/>
<polygon fill="black" stroke="black" points="1152.07,-165.5 1142.07,-169 1152.07,-172.5 1152.07,-165.5"/>
</g>
<!-- UserInterfaceComponent -->
<g id="node14" class="node">
<title>UserInterfaceComponent</title>
<polygon fill="#ffffb3" stroke="black" points="1528.99,-122 1371.01,-122 1371.01,-86 1528.99,-86 1528.99,-122"/>
<text text-anchor="middle" x="1450" y="-99.8" font-family="Times,serif" font-size="14.00">UserInterfaceComponent</text>
</g>
<!-- UserInterfaceComponent&#45;&gt;HomeModule -->
<g id="edge13" class="edge">
<title>UserInterfaceComponent&#45;&gt;HomeModule</title>
<path fill="none" stroke="black" d="M1450,-122.02C1450,-139.37 1450,-163 1450,-163 1450,-163 1151.78,-163 1151.78,-163"/>
<polygon fill="black" stroke="black" points="1151.78,-159.5 1141.78,-163 1151.78,-166.5 1151.78,-159.5"/>
</g>
<!-- HomeRoutes -->
<g id="node16" class="node">
<title>HomeRoutes</title>
<polygon fill="#8dd3c7" stroke="black" points="486.6,-122 483.6,-126 462.6,-126 459.6,-122 397.4,-122 397.4,-86 486.6,-86 486.6,-122"/>
<text text-anchor="middle" x="442" y="-99.8" font-family="Times,serif" font-size="14.00">HomeRoutes</text>
</g>
<!-- HomeRoutes&#45;&gt;HomeModule -->
<g id="edge14" class="edge">
<title>HomeRoutes&#45;&gt;HomeModule</title>
<path fill="none" stroke="black" d="M442,-122.22C442,-142.37 442,-172 442,-172 442,-172 1038.04,-172 1038.04,-172"/>
<polygon fill="black" stroke="black" points="1038.04,-175.5 1048.04,-172 1038.04,-168.5 1038.04,-175.5"/>
</g>
<!-- InitComponent -->
<g id="node17" class="node">
<title>InitComponent</title>
<polygon fill="#ffffb3" stroke="black" points="2189.27,-122 2088.73,-122 2088.73,-86 2189.27,-86 2189.27,-122"/>
<text text-anchor="middle" x="2139" y="-99.8" font-family="Times,serif" font-size="14.00">InitComponent</text>
</g>
<!-- InitComponent&#45;&gt;InitModule -->
<g id="edge16" class="edge">
<title>InitComponent&#45;&gt;InitModule</title>
<path fill="none" stroke="black" d="M2139,-122.01C2139,-144.49 2139,-180 2139,-180 2139,-180 2077.76,-180 2077.76,-180"/>
<polygon fill="black" stroke="black" points="2077.76,-176.5 2067.76,-180 2077.76,-183.5 2077.76,-176.5"/>
</g>
<!-- InitRoutes -->
<g id="node19" class="node">
<title>InitRoutes</title>
<polygon fill="#8dd3c7" stroke="black" points="2065.33,-122 2062.33,-126 2041.33,-126 2038.33,-122 1990.67,-122 1990.67,-86 2065.33,-86 2065.33,-122"/>
<text text-anchor="middle" x="2028" y="-99.8" font-family="Times,serif" font-size="14.00">InitRoutes</text>
</g>
<!-- InitRoutes&#45;&gt;InitModule -->
<g id="edge17" class="edge">
<title>InitRoutes&#45;&gt;InitModule</title>
<path fill="none" stroke="black" d="M2040.39,-122.11C2040.39,-122.11 2040.39,-140.99 2040.39,-140.99"/>
<polygon fill="black" stroke="black" points="2036.89,-140.99 2040.39,-150.99 2043.89,-140.99 2036.89,-140.99"/>
</g>
<!-- EscapeHtmlPipe -->
<g id="node20" class="node">
<title>EscapeHtmlPipe</title>
<polygon fill="#ffffb3" stroke="black" points="2838.81,-122 2729.19,-122 2729.19,-86 2838.81,-86 2838.81,-122"/>
<text text-anchor="middle" x="2784" y="-99.8" font-family="Times,serif" font-size="14.00">EscapeHtmlPipe</text>
</g>
<!-- PipesModule -->
<g id="node25" class="node">
<title>PipesModule</title>
<polygon fill="#8dd3c7" stroke="black" points="2588.88,-187 2585.88,-191 2564.88,-191 2561.88,-187 2499.12,-187 2499.12,-151 2588.88,-151 2588.88,-187"/>
<text text-anchor="middle" x="2544" y="-164.8" font-family="Times,serif" font-size="14.00">PipesModule</text>
</g>
<!-- EscapeHtmlPipe&#45;&gt;PipesModule -->
<g id="edge19" class="edge">
<title>EscapeHtmlPipe&#45;&gt;PipesModule</title>
<path fill="none" stroke="black" d="M2733.16,-122.03C2733.16,-138.4 2733.16,-160 2733.16,-160 2733.16,-160 2599.31,-160 2599.31,-160"/>
<polygon fill="black" stroke="black" points="2599.31,-156.5 2589.31,-160 2599.31,-163.5 2599.31,-156.5"/>
</g>
<!-- PairSplitFirstPipe -->
<g id="node21" class="node">
<title>PairSplitFirstPipe</title>
<polygon fill="#ffffb3" stroke="black" points="2711.56,-122 2596.44,-122 2596.44,-86 2711.56,-86 2711.56,-122"/>
<text text-anchor="middle" x="2654" y="-99.8" font-family="Times,serif" font-size="14.00">PairSplitFirstPipe</text>
</g>
<!-- PairSplitFirstPipe&#45;&gt;PipesModule -->
<g id="edge20" class="edge">
<title>PairSplitFirstPipe&#45;&gt;PipesModule</title>
<path fill="none" stroke="black" d="M2596.31,-104C2588.85,-104 2583.75,-104 2583.75,-104 2583.75,-104 2583.75,-140.89 2583.75,-140.89"/>
<polygon fill="black" stroke="black" points="2580.25,-140.89 2583.75,-150.89 2587.25,-140.89 2580.25,-140.89"/>
</g>
<!-- PairSplitSecondPipe -->
<g id="node22" class="node">
<title>PairSplitSecondPipe</title>
<polygon fill="#ffffb3" stroke="black" points="2578.6,-122 2447.4,-122 2447.4,-86 2578.6,-86 2578.6,-122"/>
<text text-anchor="middle" x="2513" y="-99.8" font-family="Times,serif" font-size="14.00">PairSplitSecondPipe</text>
</g>
<!-- PairSplitSecondPipe&#45;&gt;PipesModule -->
<g id="edge21" class="edge">
<title>PairSplitSecondPipe&#45;&gt;PipesModule</title>
<path fill="none" stroke="black" d="M2538.81,-122.11C2538.81,-122.11 2538.81,-140.99 2538.81,-140.99"/>
<polygon fill="black" stroke="black" points="2535.31,-140.99 2538.81,-150.99 2542.31,-140.99 2535.31,-140.99"/>
</g>
<!-- PairUpPipe -->
<g id="node23" class="node">
<title>PairUpPipe</title>
<polygon fill="#ffffb3" stroke="black" points="2429.04,-122 2348.96,-122 2348.96,-86 2429.04,-86 2429.04,-122"/>
<text text-anchor="middle" x="2389" y="-99.8" font-family="Times,serif" font-size="14.00">PairUpPipe</text>
</g>
<!-- PairUpPipe&#45;&gt;PipesModule -->
<g id="edge22" class="edge">
<title>PairUpPipe&#45;&gt;PipesModule</title>
<path fill="none" stroke="black" d="M2405.37,-122.01C2405.37,-138.05 2405.37,-159 2405.37,-159 2405.37,-159 2488.99,-159 2488.99,-159"/>
<polygon fill="black" stroke="black" points="2488.99,-162.5 2498.99,-159 2488.99,-155.5 2488.99,-162.5"/>
</g>
<!-- SplitUpPipe -->
<g id="node24" class="node">
<title>SplitUpPipe</title>
<polygon fill="#ffffb3" stroke="black" points="2331.45,-122 2246.55,-122 2246.55,-86 2331.45,-86 2331.45,-122"/>
<text text-anchor="middle" x="2289" y="-99.8" font-family="Times,serif" font-size="14.00">SplitUpPipe</text>
</g>
<!-- SplitUpPipe&#45;&gt;PipesModule -->
<g id="edge23" class="edge">
<title>SplitUpPipe&#45;&gt;PipesModule</title>
<path fill="none" stroke="black" d="M2289,-122.27C2289,-140.56 2289,-166 2289,-166 2289,-166 2489,-166 2489,-166"/>
<polygon fill="black" stroke="black" points="2489,-169.5 2499,-166 2489,-162.5 2489,-169.5"/>
</g>
<!-- EscapeHtmlPipe  -->
<g id="node26" class="node">
<title>EscapeHtmlPipe </title>
<polygon fill="#fb8072" stroke="black" points="2631.31,-252 2518.69,-252 2518.69,-216 2631.31,-216 2631.31,-252"/>
<text text-anchor="middle" x="2575" y="-229.8" font-family="Times,serif" font-size="14.00">EscapeHtmlPipe </text>
</g>
<!-- PipesModule&#45;&gt;EscapeHtmlPipe  -->
<g id="edge24" class="edge">
<title>PipesModule&#45;&gt;EscapeHtmlPipe </title>
<path fill="none" stroke="black" stroke-dasharray="5,2" d="M2553.77,-187.11C2553.77,-187.11 2553.77,-205.99 2553.77,-205.99"/>
<polygon fill="black" stroke="black" points="2550.27,-205.99 2553.77,-215.99 2557.27,-205.99 2550.27,-205.99"/>
</g>
<!-- PairSplitFirstPipe  -->
<g id="node27" class="node">
<title>PairSplitFirstPipe </title>
<polygon fill="#fb8072" stroke="black" points="2500.56,-252 2381.44,-252 2381.44,-216 2500.56,-216 2500.56,-252"/>
<text text-anchor="middle" x="2441" y="-229.8" font-family="Times,serif" font-size="14.00">PairSplitFirstPipe </text>
</g>
<!-- PipesModule&#45;&gt;PairSplitFirstPipe  -->
<g id="edge25" class="edge">
<title>PipesModule&#45;&gt;PairSplitFirstPipe </title>
<path fill="none" stroke="black" stroke-dasharray="5,2" d="M2509.56,-187.11C2509.56,-206.34 2509.56,-234 2509.56,-234 2509.56,-234 2508.67,-234 2508.67,-234"/>
<polygon fill="black" stroke="black" points="2510.6,-230.5 2500.6,-234 2510.6,-237.5 2510.6,-230.5"/>
</g>
<!-- PairSplitSecondPipe  -->
<g id="node28" class="node">
<title>PairSplitSecondPipe </title>
<polygon fill="#fb8072" stroke="black" points="2363.1,-252 2228.9,-252 2228.9,-216 2363.1,-216 2363.1,-252"/>
<text text-anchor="middle" x="2296" y="-229.8" font-family="Times,serif" font-size="14.00">PairSplitSecondPipe </text>
</g>
<!-- PipesModule&#45;&gt;PairSplitSecondPipe  -->
<g id="edge26" class="edge">
<title>PipesModule&#45;&gt;PairSplitSecondPipe </title>
<path fill="none" stroke="black" stroke-dasharray="5,2" d="M2498.97,-173C2443.36,-173 2356.01,-173 2356.01,-173 2356.01,-173 2356.01,-205.7 2356.01,-205.7"/>
<polygon fill="black" stroke="black" points="2352.51,-205.7 2356.01,-215.7 2359.51,-205.7 2352.51,-205.7"/>
</g>
<!-- PairUpPipe  -->
<g id="node29" class="node">
<title>PairUpPipe </title>
<polygon fill="#fb8072" stroke="black" points="2839.04,-252 2754.96,-252 2754.96,-216 2839.04,-216 2839.04,-252"/>
<text text-anchor="middle" x="2797" y="-229.8" font-family="Times,serif" font-size="14.00">PairUpPipe </text>
</g>
<!-- PipesModule&#45;&gt;PairUpPipe  -->
<g id="edge27" class="edge">
<title>PipesModule&#45;&gt;PairUpPipe </title>
<path fill="none" stroke="black" stroke-dasharray="5,2" d="M2588.91,-169C2661.56,-169 2796.82,-169 2796.82,-169 2796.82,-169 2796.82,-205.89 2796.82,-205.89"/>
<polygon fill="black" stroke="black" points="2793.32,-205.89 2796.82,-215.89 2800.32,-205.89 2793.32,-205.89"/>
</g>
<!-- SplitUpPipe  -->
<g id="node30" class="node">
<title>SplitUpPipe </title>
<polygon fill="#fb8072" stroke="black" points="2736.95,-252 2649.05,-252 2649.05,-216 2736.95,-216 2736.95,-252"/>
<text text-anchor="middle" x="2693" y="-229.8" font-family="Times,serif" font-size="14.00">SplitUpPipe </text>
</g>
<!-- PipesModule&#45;&gt;SplitUpPipe  -->
<g id="edge28" class="edge">
<title>PipesModule&#45;&gt;SplitUpPipe </title>
<path fill="none" stroke="black" stroke-dasharray="5,2" d="M2589.04,-178C2628.77,-178 2680.4,-178 2680.4,-178 2680.4,-178 2680.4,-205.97 2680.4,-205.97"/>
<polygon fill="black" stroke="black" points="2676.9,-205.97 2680.4,-215.97 2683.9,-205.97 2676.9,-205.97"/>
</g>
</g>
</svg>
